<svg xmlns="http://www.w3.org/2000/svg" width="70" height="70" viewBox="0 0 70 70" fill="none">
  <path d="M64.1666 55.4167V61.25H58.3333V55.4167H11.6666V61.25H5.83329V55.4167C4.22248 55.4167 2.91663 54.1109 2.91663 52.5V17.5C2.91663 15.8892 4.22248 14.5833 5.83329 14.5833H36.5394C39.7436 11.0031 44.4004 8.75 49.5833 8.75C54.7662 8.75 59.423 11.0031 62.6272 14.5833H64.1666C65.7775 14.5833 67.0833 15.8892 67.0833 17.5V52.5C67.0833 54.1109 65.7775 55.4167 64.1666 55.4167ZM33.079 20.4167H8.74996V49.5833H61.25V39.2939C58.1539 42.065 54.0653 43.75 49.5833 43.75C39.9183 43.75 32.0833 35.915 32.0833 26.25C32.0833 24.2046 32.4342 22.2412 33.079 20.4167ZM49.5833 37.9167C56.0265 37.9167 61.25 32.6932 61.25 26.25C61.25 19.8067 56.0265 14.5833 49.5833 14.5833C43.1401 14.5833 37.9166 19.8067 37.9166 26.25C37.9166 32.6932 43.1401 37.9167 49.5833 37.9167ZM14.5833 37.9167H20.4166V43.75H14.5833V37.9167ZM23.3333 37.9167H29.1666V43.75H23.3333V37.9167Z" fill="#FEAD5E"/>
</svg>