<svg xmlns="http://www.w3.org/2000/svg" width="70" height="70" viewBox="0 0 70 70" fill="none">
  <path d="M17.4943 5.83334C25.338 5.83334 32.1487 10.2566 35.5679 16.7447C39.0017 11.9074 44.6501 8.75001 51.0358 8.75001H61.2442V16.0417C61.2442 26.5121 52.7564 35 42.2858 35H37.9108V37.9167H52.4942V58.3333C52.4942 61.5551 49.8826 64.1667 46.6608 64.1667H23.3276C20.106 64.1667 17.4943 61.5551 17.4943 58.3333V37.9167H32.0775V32.0833H26.2443C14.9685 32.0833 5.82764 22.9425 5.82764 11.6667V5.83334H17.4943ZM46.6608 43.75H23.3276V58.3333H46.6608V43.75ZM55.4108 14.5833H51.0358C43.7873 14.5833 37.9108 20.4596 37.9108 27.7083V29.1667H42.2858C49.5346 29.1667 55.4108 23.2904 55.4108 16.0417V14.5833ZM17.4943 11.6667H11.661C11.661 19.7208 18.1901 26.25 26.2443 26.25H32.0775C32.0775 18.1959 25.5484 11.6667 17.4943 11.6667Z" fill="#FEAD5E"/>
</svg>