<svg xmlns="http://www.w3.org/2000/svg" width="70" height="70" viewBox="0 0 70 70" fill="none">
  <path d="M14.5833 14.5734V23.3234H55.4167V14.5734H14.5833ZM11.6667 8.74002H58.3333C59.9442 8.74002 61.25 10.0459 61.25 11.6567V26.24C61.25 27.8509 59.9442 29.1567 58.3333 29.1567H11.6667C10.0558 29.1567 8.75 27.8509 8.75 26.24V11.6567C8.75 10.0459 10.0558 8.74002 11.6667 8.74002ZM17.5 34.9901H35C36.6109 34.9901 37.9167 36.2959 37.9167 37.9067V46.6567H40.8333V64.1567H29.1667V46.6567H32.0833V40.8234H14.5833C12.9725 40.8234 11.6667 39.5176 11.6667 37.9067V32.0734H17.5V34.9901ZM51.7189 40.0423L56.875 34.8862L62.0311 40.0423C64.8786 42.8899 64.8786 47.5067 62.0311 50.3542C59.1835 53.202 54.5665 53.202 51.7189 50.3542C48.8714 47.5067 48.8714 42.8899 51.7189 40.0423Z" fill="#FEAD5E"/>
</svg>