<svg xmlns="http://www.w3.org/2000/svg" width="70" height="70" viewBox="0 0 70 70" fill="none">
  <path d="M14.5833 23.3333V58.3333H26.25V23.3333H14.5833ZM8.75 20.4167L20.4167 5.83334L32.0833 20.4167V64.1667H8.75V20.4167ZM55.4167 46.6667V40.8333H46.6667V35H55.4167V29.1667H49.5833V23.3333H55.4167V17.5H43.75V58.3333H55.4167V52.5H49.5833V46.6667H55.4167ZM40.8333 11.6667H58.3333C59.9442 11.6667 61.25 12.9725 61.25 14.5833V61.25C61.25 62.8609 59.9442 64.1667 58.3333 64.1667H40.8333C39.2225 64.1667 37.9167 62.8609 37.9167 61.25V14.5833C37.9167 12.9725 39.2225 11.6667 40.8333 11.6667Z" fill="#FEAD5E"/>
</svg>