<svg xmlns="http://www.w3.org/2000/svg" width="70" height="70" viewBox="0 0 70 70" fill="none">
<path d="M55.4166 58.3333H14.5833V61.25C14.5833 62.8609 13.2774 64.1667 11.6666 64.1667H8.74992C7.1391 64.1667 5.83325 62.8609 5.83325 61.25V32.0833L13.068 15.2021C13.9873 13.0573 16.0962 11.6667 18.4297 11.6667H51.5701C53.9037 11.6667 56.0125 13.0573 56.9318 15.2021L64.1666 32.0833V61.25C64.1666 62.8609 62.8608 64.1667 61.2499 64.1667H58.3333C56.7224 64.1667 55.4166 62.8609 55.4166 61.25V58.3333ZM58.3333 37.9167H11.6666V52.5H58.3333V37.9167ZM12.1797 32.0833H57.8202L51.5701 17.5H18.4297L12.1797 32.0833ZM18.9583 49.5833C16.542 49.5833 14.5833 47.6245 14.5833 45.2083C14.5833 42.7922 16.542 40.8333 18.9583 40.8333C21.3745 40.8333 23.3333 42.7922 23.3333 45.2083C23.3333 47.6245 21.3745 49.5833 18.9583 49.5833ZM51.0416 49.5833C48.6254 49.5833 46.6666 47.6245 46.6666 45.2083C46.6666 42.7922 48.6254 40.8333 51.0416 40.8333C53.4578 40.8333 55.4166 42.7922 55.4166 45.2083C55.4166 47.6245 53.4578 49.5833 51.0416 49.5833Z" fill="#FEAD5E"/>
</svg>